<svg width="28" height="28" viewBox="0 0 28 28" fill="none" xmlns="http://www.w3.org/2000/svg">
<path d="M28 14C28 21.732 21.732 28 14 28C6.26801 28 0 21.732 0 14C0 6.26801 6.26801 0 14 0C21.732 0 28 6.26801 28 14Z" fill="white"/>
<path d="M27.5 14C27.5 21.4558 21.4558 27.5 14 27.5C6.54416 27.5 0.5 21.4558 0.5 14C0.5 6.54415 6.54416 0.5 14 0.5C21.4558 0.5 27.5 6.54415 27.5 14Z" stroke="black" stroke-opacity="0.2"/>
<path d="M12.8689 20.1749V14.6214H11V12.457H12.8689V10.8609C12.8689 9.00861 14.0002 8 15.6526 8C16.4441 8 17.1243 8.05893 17.3226 8.08527V10.021L16.1766 10.0215C15.2779 10.0215 15.1039 10.4486 15.1039 11.0752V12.457H17.2471L16.9681 14.6214H15.1039V20.1749H12.8689Z" fill="black"/>
</svg>
