<svg aria-hidden="true" xmlns="http://www.w3.org/2000/svg" xmlns:xlink="http://www.w3.org/1999/xlink"><symbol viewBox="0 0 208 34" fill="none" id="Calvin" xmlns="http://www.w3.org/2000/svg">
<g id="agGroup">
<path id="agVector" fill-rule="evenodd" clip-rule="evenodd" d="M17.1298 30.4522C9.89114 30.4522 3.71249 23.8867 3.71249 16.7255C3.71249 9.59072 9.76182 2.89479 17.0778 2.89479C21.887 2.89479 25.3499 5.22146 28.1684 8.86674H31.7098C30.6498 6.95346 29.5125 5.19603 27.7805 3.82545C24.8072 1.42142 20.9552 0 17.1298 0C7.95243 0 0.481689 7.57464 0.481689 16.7C0.481689 25.8508 8.05633 33.3481 17.1817 33.3481C20.9044 33.3481 24.5497 31.9786 27.471 29.6774C29.3069 28.204 30.599 26.2907 31.8402 24.3255H28.2989C25.5058 27.9708 21.9389 30.4522 17.1298 30.4522ZM53.8391 13.0028C51.6163 10.1334 48.5911 8.32404 44.843 8.32404C38.1217 8.32404 32.5896 13.7798 32.5896 20.5012C32.5896 27.2214 38.1482 32.728 44.843 32.728C48.747 32.728 51.4605 31.0988 53.8391 28.1001V32.1842H56.7604V8.89216H53.8391V13.0028ZM44.6883 30.0388C39.5431 30.0388 35.4844 25.5668 35.4844 20.5266C35.4844 15.5107 39.5177 11.0132 44.6883 11.0132C49.8324 11.0132 53.8391 15.5118 53.8391 20.5266C53.8391 25.5668 49.8059 30.0388 44.6883 30.0388ZM60.3018 32.1842H63.4309V0.670921H60.3018V32.1842ZM75.2444 28.487L67.3337 8.89216H64.2312L73.7191 32.1842H76.8725L86.335 8.89216H83.2844L75.2444 28.487ZM87.6271 32.1842H90.7551V8.89216H87.6271V32.1842ZM87.6271 5.89348H90.7551V0.670921H87.6271V5.89348ZM104.224 8.32293C101.277 8.32293 99.1831 9.87478 97.2444 11.9428V8.89216H94.3485V32.1842H97.4245V17.991C97.3991 14.2429 100.501 11.0121 104.275 11.0121C109.005 11.0121 111.383 15.1228 111.383 19.3627V32.1853H114.278V19.3627C114.279 13.3134 110.739 8.32293 104.224 8.32293ZM143.311 0.670921L129.093 18.7415V0.670921H126.017V32.1842H129.093V23.5242L133.126 18.5094L143.389 32.1842H147.294L135.09 16.0269L147.294 0.670921H143.311ZM148.43 32.1842H151.482V0.670921H148.43V32.1842ZM176.738 14.7602C174.618 10.8043 170.378 8.32293 165.905 8.32293C159.236 8.32293 153.599 13.8815 153.599 20.5509C153.599 27.2711 159.287 32.7269 165.959 32.7269C169.137 32.7269 172.267 31.4602 174.566 29.2629C175.963 27.9443 176.79 26.2896 177.538 24.5576H174.256C172.601 27.7895 169.679 30.0377 165.904 30.0377C163.605 30.0377 161.355 29.107 159.65 27.5298C157.89 25.9282 157.115 23.9619 156.778 21.6363H178.263C178.264 19.2068 177.927 16.8802 176.738 14.7602ZM156.883 18.9482C157.816 14.5801 161.252 11.0121 165.959 11.0121C169.914 11.0121 174.154 13.4427 175.084 18.9482H156.883ZM180.539 32.1842H183.614V8.89216H180.539V32.1842ZM180.539 5.99738H183.614V0.670921H180.539V5.99738ZM197.136 8.32293C194.135 8.32293 192.042 9.87478 190.077 11.9428V8.89216H187.13V32.1842H190.232V17.991C190.207 14.2175 193.387 11.0121 197.186 11.0121C201.892 11.0121 204.375 15.1228 204.375 19.3627V32.1853H207.27V19.3627C207.27 13.3134 203.675 8.32293 197.136 8.32293Z" fill="currentColor"/>
</g>
</symbol><symbol viewBox="0 0 24 24" fill="none" id="account" xmlns="http://www.w3.org/2000/svg">
<g id="aaFrame">
<path id="aaVector" d="M12 1.875C9.99747 1.875 8.0399 2.46882 6.37486 3.58137C4.70981 4.69392 3.41206 6.27523 2.64572 8.12533C1.87939 9.97543 1.67888 12.0112 2.06955 13.9753C2.46023 15.9393 3.42454 17.7435 4.84055 19.1595C6.25656 20.5755 8.06066 21.5398 10.0247 21.9305C11.9888 22.3211 14.0246 22.1206 15.8747 21.3543C17.7248 20.5879 19.3061 19.2902 20.4186 17.6251C21.5312 15.9601 22.125 14.0025 22.125 12C22.122 9.3156 21.0543 6.74199 19.1562 4.84383C17.258 2.94567 14.6844 1.87798 12 1.875ZM7.45969 18.4284C7.98195 17.7143 8.66528 17.1335 9.45418 16.7331C10.2431 16.3327 11.1153 16.124 12 16.124C12.8847 16.124 13.7569 16.3327 14.5458 16.7331C15.3347 17.1335 16.0181 17.7143 16.5403 18.4284C15.2134 19.3695 13.6268 19.875 12 19.875C10.3732 19.875 8.78665 19.3695 7.45969 18.4284ZM9.375 11.25C9.375 10.7308 9.52896 10.2233 9.8174 9.79163C10.1058 9.35995 10.5158 9.0235 10.9955 8.82482C11.4751 8.62614 12.0029 8.57415 12.5121 8.67544C13.0213 8.77672 13.489 9.02673 13.8562 9.39384C14.2233 9.76096 14.4733 10.2287 14.5746 10.7379C14.6759 11.2471 14.6239 11.7749 14.4252 12.2545C14.2265 12.7342 13.8901 13.1442 13.4584 13.4326C13.0267 13.721 12.5192 13.875 12 13.875C11.3038 13.875 10.6361 13.5984 10.1438 13.1062C9.65157 12.6139 9.375 11.9462 9.375 11.25ZM18.1875 16.8694C17.4583 15.9419 16.5289 15.1914 15.4688 14.6737C16.1444 13.9896 16.6026 13.1208 16.7858 12.1769C16.9689 11.2329 16.8688 10.2558 16.498 9.36861C16.1273 8.4814 15.5024 7.72364 14.702 7.19068C13.9017 6.65771 12.9616 6.37334 12 6.37334C11.0384 6.37334 10.0983 6.65771 9.29797 7.19068C8.49762 7.72364 7.87275 8.4814 7.50198 9.36861C7.13121 10.2558 7.0311 11.2329 7.21424 12.1769C7.39739 13.1208 7.85561 13.9896 8.53125 14.6737C7.4711 15.1914 6.54168 15.9419 5.8125 16.8694C4.89661 15.7083 4.32614 14.3129 4.1664 12.8427C4.00665 11.3725 4.2641 9.88711 4.90925 8.55644C5.55441 7.22578 6.5612 6.10366 7.81439 5.31855C9.06757 4.53343 10.5165 4.11703 11.9953 4.11703C13.4741 4.11703 14.9231 4.53343 16.1762 5.31855C17.4294 6.10366 18.4362 7.22578 19.0814 8.55644C19.7265 9.88711 19.984 11.3725 19.8242 12.8427C19.6645 14.3129 19.094 15.7083 18.1781 16.8694H18.1875Z" fill="currentColor"/>
</g>
</symbol><symbol viewBox="0 0 16 16" fill="none" id="ap-right" xmlns="http://www.w3.org/2000/svg">
<g id="abFrame">
<path id="abVector" d="M6.53073 2.46937L11.5307 7.46937C11.6007 7.53905 11.6561 7.62184 11.694 7.71301C11.7318 7.80417 11.7513 7.90191 11.7513 8.00062C11.7513 8.09933 11.7318 8.19707 11.694 8.28824C11.6561 8.3794 11.6007 8.46219 11.5307 8.53187L6.53073 13.5319C6.38984 13.6728 6.19874 13.7519 5.99948 13.7519C5.80023 13.7519 5.60913 13.6728 5.46823 13.5319C5.32734 13.391 5.24818 13.1999 5.24818 13.0006C5.24818 12.8014 5.32734 12.6103 5.46823 12.4694L9.93761 8L5.46761 3.53062C5.32671 3.38973 5.24756 3.19863 5.24756 2.99937C5.24756 2.80011 5.32671 2.60902 5.46761 2.46812C5.60851 2.32723 5.7996 2.24807 5.99886 2.24807C6.19812 2.24807 6.38921 2.32723 6.53011 2.46812L6.53073 2.46937Z" fill="currentColor" fill-opacity="0.6"/>
</g>
</symbol><symbol viewBox="0 0 12 8" fill="none" id="ap-up" xmlns="http://www.w3.org/2000/svg">
<path d="M0.469402 5.96945L5.4694 0.969449C5.53908 0.899529 5.62187 0.844052 5.71304 0.806198C5.8042 0.768344 5.90194 0.748858 6.00065 0.748858C6.09936 0.748858 6.1971 0.768344 6.28827 0.806198C6.37943 0.844052 6.46222 0.899529 6.5319 0.969449L11.5319 5.96945C11.6728 6.11034 11.752 6.30144 11.752 6.5007C11.752 6.69996 11.6728 6.89105 11.5319 7.03195C11.391 7.17284 11.1999 7.252 11.0007 7.252C10.8014 7.252 10.6103 7.17284 10.4694 7.03195L6.00003 2.56257L1.53065 7.03257C1.38976 7.17347 1.19866 7.25263 0.999403 7.25263C0.800145 7.25263 0.609049 7.17347 0.468153 7.03257C0.327257 6.89168 0.2481 6.70058 0.2481 6.50132C0.2481 6.30207 0.327257 6.11097 0.468153 5.97007L0.469402 5.96945Z" fill="currentColor"/>
</symbol><symbol viewBox="0 0 24 24" fill="none" id="arrow-left" xmlns="http://www.w3.org/2000/svg">
<g id="adarrow-down-bold 2">
<path id="adVector" d="M9.70406 4.4541L2.95406 11.2041C2.84918 11.3086 2.76597 11.4328 2.70919 11.5696C2.6524 11.7063 2.62317 11.8529 2.62317 12.001C2.62317 12.149 2.6524 12.2957 2.70919 12.4324C2.76597 12.5691 2.84918 12.6933 2.95406 12.7979L9.70406 19.5479C9.91541 19.7592 10.2021 19.8779 10.5009 19.8779C10.7998 19.8779 11.0865 19.7592 11.2978 19.5479C11.5092 19.3365 11.6279 19.0499 11.6279 18.751C11.6279 18.4521 11.5092 18.1654 11.2978 17.9541L6.46875 13.125L20.25 13.125C20.5484 13.125 20.8345 13.0065 21.0455 12.7955C21.2565 12.5846 21.375 12.2984 21.375 12C21.375 11.7017 21.2565 11.4155 21.0455 11.2045C20.8345 10.9936 20.5484 10.875 20.25 10.875L6.46875 10.875L11.2987 6.04598C11.5101 5.83463 11.6288 5.54799 11.6288 5.2491C11.6288 4.95022 11.5101 4.66357 11.2987 4.45223C11.0874 4.24088 10.8008 4.12215 10.5019 4.12215C10.203 4.12215 9.91634 4.24088 9.705 4.45223L9.70406 4.4541Z" fill="currentColor"/>
</g>
</symbol><symbol viewBox="0 0 24 24" fill="none" id="arrow-right" xmlns="http://www.w3.org/2000/svg">
<g id="aearrow-down-bold 1">
<path id="aeVector" d="M14.2959 4.4541L21.0459 11.2041C21.1508 11.3086 21.234 11.4328 21.2908 11.5696C21.3476 11.7063 21.3768 11.8529 21.3768 12.001C21.3768 12.149 21.3476 12.2957 21.2908 12.4324C21.234 12.5691 21.1508 12.6933 21.0459 12.7979L14.2959 19.5479C14.0846 19.7592 13.7979 19.8779 13.4991 19.8779C13.2002 19.8779 12.9135 19.7592 12.7022 19.5479C12.4908 19.3365 12.3721 19.0499 12.3721 18.751C12.3721 18.4521 12.4908 18.1654 12.7022 17.9541L17.5313 13.125L3.75 13.125C3.45163 13.125 3.16548 13.0065 2.9545 12.7955C2.74353 12.5846 2.625 12.2984 2.625 12C2.625 11.7017 2.74353 11.4155 2.95451 11.2045C3.16548 10.9936 3.45163 10.875 3.75 10.875L17.5313 10.875L12.7013 6.04598C12.4899 5.83463 12.3712 5.54799 12.3712 5.2491C12.3712 4.95022 12.4899 4.66357 12.7013 4.45223C12.9126 4.24088 13.1992 4.12215 13.4981 4.12215C13.797 4.12215 14.0837 4.24088 14.295 4.45223L14.2959 4.4541Z" fill="currentColor"/>
</g>
</symbol><symbol viewBox="0 0 24 24" fill="none" id="bin" xmlns="http://www.w3.org/2000/svg">
<g id="afFrame">
<path id="afVector" d="M20.25 4.5H16.5V3.75C16.5 3.15326 16.2629 2.58097 15.841 2.15901C15.419 1.73705 14.8467 1.5 14.25 1.5H9.75C9.15326 1.5 8.58097 1.73705 8.15901 2.15901C7.73705 2.58097 7.5 3.15326 7.5 3.75V4.5H3.75C3.55109 4.5 3.36032 4.57902 3.21967 4.71967C3.07902 4.86032 3 5.05109 3 5.25C3 5.44891 3.07902 5.63968 3.21967 5.78033C3.36032 5.92098 3.55109 6 3.75 6H4.5V19.5C4.5 19.8978 4.65804 20.2794 4.93934 20.5607C5.22064 20.842 5.60218 21 6 21H18C18.3978 21 18.7794 20.842 19.0607 20.5607C19.342 20.2794 19.5 19.8978 19.5 19.5V6H20.25C20.4489 6 20.6397 5.92098 20.7803 5.78033C20.921 5.63968 21 5.44891 21 5.25C21 5.05109 20.921 4.86032 20.7803 4.71967C20.6397 4.57902 20.4489 4.5 20.25 4.5ZM10.5 15.75C10.5 15.9489 10.421 16.1397 10.2803 16.2803C10.1397 16.421 9.94891 16.5 9.75 16.5C9.55109 16.5 9.36032 16.421 9.21967 16.2803C9.07902 16.1397 9 15.9489 9 15.75V9.75C9 9.55109 9.07902 9.36032 9.21967 9.21967C9.36032 9.07902 9.55109 9 9.75 9C9.94891 9 10.1397 9.07902 10.2803 9.21967C10.421 9.36032 10.5 9.55109 10.5 9.75V15.75ZM15 15.75C15 15.9489 14.921 16.1397 14.7803 16.2803C14.6397 16.421 14.4489 16.5 14.25 16.5C14.0511 16.5 13.8603 16.421 13.7197 16.2803C13.579 16.1397 13.5 15.9489 13.5 15.75V9.75C13.5 9.55109 13.579 9.36032 13.7197 9.21967C13.8603 9.07902 14.0511 9 14.25 9C14.4489 9 14.6397 9.07902 14.7803 9.21967C14.921 9.36032 15 9.55109 15 9.75V15.75ZM15 4.5H9V3.75C9 3.55109 9.07902 3.36032 9.21967 3.21967C9.36032 3.07902 9.55109 3 9.75 3H14.25C14.4489 3 14.6397 3.07902 14.7803 3.21967C14.921 3.36032 15 3.55109 15 3.75V4.5Z" fill="currentColor"/>
</g>
</symbol><symbol viewBox="0 0 24 24" fill="none" id="cart" xmlns="http://www.w3.org/2000/svg">
<g id="ahFrame">
<path id="ahVector" d="M9.375 20.25C9.375 20.6208 9.26503 20.9834 9.059 21.2917C8.85298 21.6 8.56014 21.8404 8.21753 21.9823C7.87492 22.1242 7.49792 22.1613 7.1342 22.089C6.77049 22.0166 6.4364 21.838 6.17417 21.5758C5.91195 21.3136 5.73337 20.9795 5.66103 20.6158C5.58868 20.2521 5.62581 19.8751 5.76773 19.5325C5.90964 19.1899 6.14996 18.897 6.45831 18.691C6.76665 18.485 7.12916 18.375 7.5 18.375C7.99728 18.375 8.47419 18.5725 8.82582 18.9242C9.17745 19.2758 9.375 19.7527 9.375 20.25ZM17.25 18.375C16.8792 18.375 16.5166 18.485 16.2083 18.691C15.9 18.897 15.6596 19.1899 15.5177 19.5325C15.3758 19.8751 15.3387 20.2521 15.411 20.6158C15.4834 20.9795 15.662 21.3136 15.9242 21.5758C16.1864 21.838 16.5205 22.0166 16.8842 22.089C17.2479 22.1613 17.6249 22.1242 17.9675 21.9823C18.3101 21.8404 18.603 21.6 18.809 21.2917C19.015 20.9834 19.125 20.6208 19.125 20.25C19.125 19.7527 18.9275 19.2758 18.5758 18.9242C18.2242 18.5725 17.7473 18.375 17.25 18.375ZM22.0753 7.08094L19.5169 15.3966C19.3535 15.9343 19.0211 16.4051 18.569 16.739C18.1169 17.0729 17.5692 17.2521 17.0072 17.25H7.77469C7.2046 17.2482 6.65046 17.0616 6.1953 16.7183C5.74015 16.3751 5.40848 15.8936 5.25 15.3459L2.04469 4.125H1.125C0.826631 4.125 0.540483 4.00647 0.329505 3.7955C0.118526 3.58452 0 3.29837 0 3C0 2.70163 0.118526 2.41548 0.329505 2.2045C0.540483 1.99353 0.826631 1.875 1.125 1.875H2.32687C2.73407 1.87626 3.12988 2.00951 3.45493 2.25478C3.77998 2.50004 4.01674 2.84409 4.12969 3.23531L4.81312 5.625H21C21.1761 5.62499 21.3497 5.6663 21.5069 5.74561C21.664 5.82492 21.8004 5.94001 21.905 6.08164C22.0096 6.22326 22.0795 6.38746 22.1091 6.56102C22.1387 6.73458 22.1271 6.91266 22.0753 7.08094ZM19.4766 7.875H5.45531L7.41375 14.7281C7.43617 14.8065 7.48354 14.8755 7.54867 14.9245C7.6138 14.9736 7.69315 15.0001 7.77469 15H17.0072C17.0875 15.0002 17.1656 14.9746 17.2303 14.927C17.2949 14.8794 17.3426 14.8123 17.3662 14.7356L19.4766 7.875Z" fill="currentColor"/>
</g>
</symbol><symbol viewBox="0 0 20 20" fill="none" id="close" xmlns="http://www.w3.org/2000/svg">
<g id="aiFrame">
<path id="aiVector" d="M16.2882 14.9617C16.4644 15.1378 16.5633 15.3767 16.5633 15.6258C16.5633 15.8749 16.4644 16.1137 16.2882 16.2898C16.1121 16.466 15.8733 16.5649 15.6242 16.5649C15.3751 16.5649 15.1362 16.466 14.9601 16.2898L9.99997 11.3281L5.03825 16.2883C4.86213 16.4644 4.62326 16.5633 4.37418 16.5633C4.12511 16.5633 3.88624 16.4644 3.71012 16.2883C3.534 16.1122 3.43506 15.8733 3.43506 15.6242C3.43506 15.3751 3.534 15.1363 3.71012 14.9602L8.67184 10L3.71168 5.03828C3.53556 4.86216 3.43662 4.62329 3.43662 4.37422C3.43662 4.12515 3.53556 3.88628 3.71168 3.71016C3.8878 3.53404 4.12668 3.43509 4.37575 3.43509C4.62482 3.43509 4.86369 3.53404 5.03981 3.71016L9.99997 8.67188L14.9617 3.70938C15.1378 3.53326 15.3767 3.43431 15.6257 3.43431C15.8748 3.43431 16.1137 3.53326 16.2898 3.70938C16.4659 3.8855 16.5649 4.12437 16.5649 4.37344C16.5649 4.62251 16.4659 4.86138 16.2898 5.0375L11.3281 10L16.2882 14.9617Z" fill="currentColor"/>
</g>
</symbol><symbol viewBox="0 0 24 24" fill="none" id="ellipsis" xmlns="http://www.w3.org/2000/svg">
<g id="ajFrame">
<path id="ajVector" d="M14.625 12C14.625 12.5192 14.471 13.0267 14.1826 13.4584C13.8942 13.8901 13.4842 14.2265 13.0045 14.4252C12.5249 14.6239 11.9971 14.6758 11.4879 14.5746C10.9787 14.4733 10.511 14.2233 10.1438 13.8562C9.77673 13.489 9.52673 13.0213 9.42544 12.5121C9.32415 12.0029 9.37614 11.4751 9.57482 10.9955C9.7735 10.5158 10.11 10.1058 10.5416 9.81739C10.9733 9.52895 11.4808 9.375 12 9.375C12.6962 9.375 13.3639 9.65156 13.8562 10.1438C14.3484 10.6361 14.625 11.3038 14.625 12ZM4.5 9.375C3.98083 9.375 3.47331 9.52895 3.04163 9.81739C2.60995 10.1058 2.2735 10.5158 2.07482 10.9955C1.87614 11.4751 1.82415 12.0029 1.92544 12.5121C2.02673 13.0213 2.27673 13.489 2.64385 13.8562C3.01096 14.2233 3.47869 14.4733 3.98789 14.5746C4.49709 14.6758 5.02489 14.6239 5.50455 14.4252C5.9842 14.2265 6.39417 13.8901 6.68261 13.4584C6.97105 13.0267 7.125 12.5192 7.125 12C7.125 11.3038 6.84844 10.6361 6.35616 10.1438C5.86387 9.65156 5.19619 9.375 4.5 9.375ZM19.5 9.375C18.9808 9.375 18.4733 9.52895 18.0416 9.81739C17.61 10.1058 17.2735 10.5158 17.0748 10.9955C16.8761 11.4751 16.8242 12.0029 16.9254 12.5121C17.0267 13.0213 17.2767 13.489 17.6438 13.8562C18.011 14.2233 18.4787 14.4733 18.9879 14.5746C19.4971 14.6758 20.0249 14.6239 20.5045 14.4252C20.9842 14.2265 21.3942 13.8901 21.6826 13.4584C21.971 13.0267 22.125 12.5192 22.125 12C22.125 11.6553 22.0571 11.3139 21.9252 10.9955C21.7933 10.677 21.5999 10.3876 21.3562 10.1438C21.1124 9.90009 20.823 9.70673 20.5045 9.57482C20.1861 9.4429 19.8447 9.375 19.5 9.375Z" fill="currentColor" fill-opacity="0.4"/>
</g>
</symbol><symbol viewBox="0 0 24 24" fill="none" id="email" xmlns="http://www.w3.org/2000/svg">
<g id="akFrame">
<path id="akVector" d="M21 4.125H3C2.70163 4.125 2.41548 4.24353 2.2045 4.4545C1.99353 4.66548 1.875 4.95163 1.875 5.25V18C1.875 18.4973 2.07254 18.9742 2.42417 19.3258C2.77581 19.6775 3.25272 19.875 3.75 19.875H20.25C20.7473 19.875 21.2242 19.6775 21.5758 19.3258C21.9275 18.9742 22.125 18.4973 22.125 18V5.25C22.125 4.95163 22.0065 4.66548 21.7955 4.4545C21.5845 4.24353 21.2984 4.125 21 4.125ZM12 11.9738L5.89219 6.375H18.1078L12 11.9738ZM8.69906 12L4.125 16.1925V7.8075L8.69906 12ZM10.3641 13.5262L11.2397 14.3297C11.4472 14.52 11.7185 14.6255 12 14.6255C12.2815 14.6255 12.5528 14.52 12.7603 14.3297L13.6359 13.5262L18.1078 17.625H5.89219L10.3641 13.5262ZM15.3009 12L19.875 7.8075V16.1925L15.3009 12Z" fill="currentColor" fill-opacity="0.4"/>
</g>
</symbol><symbol viewBox="0 0 24 24" fill="none" id="eye-closed" xmlns="http://www.w3.org/2000/svg">
<path fill-rule="evenodd" clip-rule="evenodd" d="M8.21764 18.959C8.74744 19.115 9.30336 18.8119 9.45932 18.2821L10.1857 15.8142C11.3894 16.0615 12.6109 16.0615 13.8146 15.8143L14.5407 18.282C14.6966 18.8118 15.2525 19.115 15.7823 18.9591C16.3121 18.8032 16.6152 18.2473 16.4593 17.7175L15.7208 15.2074C16.7092 14.7775 17.6625 14.1765 18.5641 13.413L20.2609 15.2748C20.6329 15.683 21.2654 15.7123 21.6736 15.3403C22.0818 14.9683 22.1111 14.3358 21.7391 13.9276L19.9957 12.0146C20.6511 11.2825 21.2708 10.4533 21.848 9.52974C22.1407 9.0614 21.9983 8.44445 21.53 8.15174C21.0617 7.85903 20.4447 8.00141 20.152 8.46974C19.4567 9.58221 18.7081 10.5192 17.9278 11.2869C16.7309 12.4644 15.463 13.2404 14.1934 13.6493C12.7433 14.1164 11.2571 14.1164 9.80701 13.6493C8.53734 13.2404 7.26942 12.4644 6.07248 11.2869C5.29207 10.5191 4.54328 9.58218 3.84801 8.46974C3.5553 8.0014 2.93835 7.85903 2.47001 8.15174C2.00168 8.44445 1.8593 9.0614 2.15201 9.52974C2.72933 10.4534 3.34915 11.2825 4.00455 12.0146L2.26095 13.9275C1.88891 14.3357 1.9182 14.9682 2.32637 15.3402C2.73454 15.7123 3.36703 15.683 3.73907 15.2748L5.43615 13.4129C6.33782 14.1764 7.29112 14.7774 8.27954 15.2074L7.54071 17.7174C7.38476 18.2472 7.68783 18.8031 8.21764 18.959Z" fill="currentColor"/>
</symbol><symbol viewBox="0 0 16 16" fill="none" id="eye-open" xmlns="http://www.w3.org/2000/svg">
<path d="M1.76075 5.67858C3.56349 4.17458 5.63889 3.33333 7.83368 3.33333C10.0285 3.33333 12.1039 4.17458 13.9066 5.67858C14.1893 5.91444 14.6097 5.87646 14.8456 5.59374C15.0815 5.31102 15.0435 4.89063 14.7608 4.65476C12.7562 2.98237 10.3866 2 7.83368 2C5.28071 2 2.91118 2.98237 0.906599 4.65476C0.62388 4.89063 0.585899 5.31102 0.821767 5.59374C1.05763 5.87646 1.47803 5.91444 1.76075 5.67858Z" fill="currentColor"/>
<path fill-rule="evenodd" clip-rule="evenodd" d="M2.73418 6.45935C3.9332 5.44709 5.64329 4.5 7.58366 4.5C9.52403 4.5 11.2341 5.44709 12.4331 6.45935C13.0376 6.96963 13.5331 7.51363 13.8833 7.99952C14.0581 8.24199 14.2038 8.47992 14.3087 8.70052C14.4051 8.90315 14.5003 9.15887 14.5003 9.41667C14.5003 9.67447 14.4051 9.93019 14.3087 10.1328C14.2038 10.3534 14.0581 10.5913 13.8833 10.8338C13.5331 11.3197 13.0376 11.8637 12.4331 12.374C11.2341 13.3862 9.52403 14.3333 7.58366 14.3333C5.64329 14.3333 3.9332 13.3862 2.73418 12.374C2.12976 11.8637 1.63419 11.3197 1.28399 10.8338C1.10923 10.5913 0.963482 10.3534 0.858578 10.1328C0.762219 9.93019 0.666992 9.67447 0.666992 9.41667C0.666992 9.15887 0.762219 8.90315 0.858578 8.70052C0.963482 8.47992 1.10923 8.24199 1.28399 7.99952C1.63419 7.51363 2.12976 6.96963 2.73418 6.45935ZM2.00505 9.41667C2.0118 9.43924 2.02736 9.4859 2.0627 9.56021C2.1243 9.68976 2.22413 9.85786 2.36564 10.0542C2.64797 10.4459 3.0677 10.9106 3.5943 11.3552C4.65734 12.2526 6.07225 13 7.58366 13C9.09507 13 10.51 12.2526 11.573 11.3552C12.0996 10.9106 12.5193 10.4459 12.8017 10.0542C12.9432 9.85786 13.043 9.68976 13.1046 9.56021C13.14 9.4859 13.1555 9.43924 13.1623 9.41666C13.1555 9.39409 13.14 9.34743 13.1046 9.27312C13.043 9.14357 12.9432 8.97547 12.8017 8.77913C12.5193 8.38742 12.0996 7.92274 11.573 7.47816C11.3494 7.28939 11.1103 7.10726 10.8579 6.93733C10.9506 7.24756 11.0003 7.5763 11.0003 7.91667C11.0003 9.80364 9.47063 11.3333 7.58366 11.3333C5.69669 11.3333 4.16699 9.80364 4.16699 7.91667C4.16699 7.5763 4.21676 7.24756 4.30942 6.93733C4.05706 7.10726 3.8179 7.28939 3.5943 7.47816C3.0677 7.92274 2.64797 8.38742 2.36564 8.77913C2.22413 8.97547 2.1243 9.14357 2.0627 9.27312C2.02736 9.34743 2.0118 9.39409 2.00505 9.41667ZM5.50033 7.91667C5.50033 6.76607 6.43307 5.83333 7.58366 5.83333C8.73425 5.83333 9.66699 6.76607 9.66699 7.91667C9.66699 9.06726 8.73425 10 7.58366 10C6.43307 10 5.50033 9.06726 5.50033 7.91667Z" fill="currentColor"/>
</symbol><symbol viewBox="0 0 28 28" fill="none" id="fb" xmlns="http://www.w3.org/2000/svg">
<path d="M28 14C28 21.732 21.732 28 14 28C6.26801 28 0 21.732 0 14C0 6.26801 6.26801 0 14 0C21.732 0 28 6.26801 28 14Z" fill="currentColor"/>
<path d="M27.5 14C27.5 21.4558 21.4558 27.5 14 27.5C6.54416 27.5 0.5 21.4558 0.5 14C0.5 6.54415 6.54416 0.5 14 0.5C21.4558 0.5 27.5 6.54415 27.5 14Z" stroke="currentColor" stroke-opacity="0.2"/>
<path d="M12.8689 20.1749V14.6214H11V12.457H12.8689V10.8609C12.8689 9.00861 14.0002 8 15.6526 8C16.4441 8 17.1243 8.05893 17.3226 8.08527V10.021L16.1766 10.0215C15.2779 10.0215 15.1039 10.4486 15.1039 11.0752V12.457H17.2471L16.9681 14.6214H15.1039V20.1749H12.8689Z" fill="currentColor"/>
</symbol><symbol viewBox="0 0 24 24" fill="none" id="filter" xmlns="http://www.w3.org/2000/svg">
<g id="apFrame">
<path id="apVector" d="M13.125 11.625V20.25C13.125 20.5484 13.0065 20.8345 12.7955 21.0455C12.5845 21.2565 12.2984 21.375 12 21.375C11.7016 21.375 11.4155 21.2565 11.2045 21.0455C10.9935 20.8345 10.875 20.5484 10.875 20.25V11.625C10.875 11.3266 10.9935 11.0405 11.2045 10.8295C11.4155 10.6185 11.7016 10.5 12 10.5C12.2984 10.5 12.5845 10.6185 12.7955 10.8295C13.0065 11.0405 13.125 11.3266 13.125 11.625ZM18.75 18C18.4516 18 18.1655 18.1185 17.9545 18.3295C17.7435 18.5405 17.625 18.8266 17.625 19.125V20.25C17.625 20.5484 17.7435 20.8345 17.9545 21.0455C18.1655 21.2565 18.4516 21.375 18.75 21.375C19.0484 21.375 19.3345 21.2565 19.5455 21.0455C19.7565 20.8345 19.875 20.5484 19.875 20.25V19.125C19.875 18.8266 19.7565 18.5405 19.5455 18.3295C19.3345 18.1185 19.0484 18 18.75 18ZM21 14.25H19.875V3.75C19.875 3.45163 19.7565 3.16548 19.5455 2.9545C19.3345 2.74353 19.0484 2.625 18.75 2.625C18.4516 2.625 18.1655 2.74353 17.9545 2.9545C17.7435 3.16548 17.625 3.45163 17.625 3.75V14.25H16.5C16.2016 14.25 15.9155 14.3685 15.7045 14.5795C15.4935 14.7905 15.375 15.0766 15.375 15.375C15.375 15.6734 15.4935 15.9595 15.7045 16.1705C15.9155 16.3815 16.2016 16.5 16.5 16.5H21C21.2984 16.5 21.5845 16.3815 21.7955 16.1705C22.0065 15.9595 22.125 15.6734 22.125 15.375C22.125 15.0766 22.0065 14.7905 21.7955 14.5795C21.5845 14.3685 21.2984 14.25 21 14.25ZM5.25 15C4.95163 15 4.66548 15.1185 4.4545 15.3295C4.24353 15.5405 4.125 15.8266 4.125 16.125V20.25C4.125 20.5484 4.24353 20.8345 4.4545 21.0455C4.66548 21.2565 4.95163 21.375 5.25 21.375C5.54837 21.375 5.83452 21.2565 6.0455 21.0455C6.25647 20.8345 6.375 20.5484 6.375 20.25V16.125C6.375 15.8266 6.25647 15.5405 6.0455 15.3295C5.83452 15.1185 5.54837 15 5.25 15ZM7.5 11.25H6.375V3.75C6.375 3.45163 6.25647 3.16548 6.0455 2.9545C5.83452 2.74353 5.54837 2.625 5.25 2.625C4.95163 2.625 4.66548 2.74353 4.4545 2.9545C4.24353 3.16548 4.125 3.45163 4.125 3.75V11.25H3C2.70163 11.25 2.41548 11.3685 2.2045 11.5795C1.99353 11.7905 1.875 12.0766 1.875 12.375C1.875 12.6734 1.99353 12.9595 2.2045 13.1705C2.41548 13.3815 2.70163 13.5 3 13.5H7.5C7.79837 13.5 8.08452 13.3815 8.2955 13.1705C8.50647 12.9595 8.625 12.6734 8.625 12.375C8.625 12.0766 8.50647 11.7905 8.2955 11.5795C8.08452 11.3685 7.79837 11.25 7.5 11.25ZM14.25 6.75H13.125V3.75C13.125 3.45163 13.0065 3.16548 12.7955 2.9545C12.5845 2.74353 12.2984 2.625 12 2.625C11.7016 2.625 11.4155 2.74353 11.2045 2.9545C10.9935 3.16548 10.875 3.45163 10.875 3.75V6.75H9.75C9.45163 6.75 9.16548 6.86853 8.9545 7.0795C8.74353 7.29048 8.625 7.57663 8.625 7.875C8.625 8.17337 8.74353 8.45952 8.9545 8.6705C9.16548 8.88147 9.45163 9 9.75 9H14.25C14.5484 9 14.8345 8.88147 15.0455 8.6705C15.2565 8.45952 15.375 8.17337 15.375 7.875C15.375 7.57663 15.2565 7.29048 15.0455 7.0795C14.8345 6.86853 14.5484 6.75 14.25 6.75Z" fill="currentColor"/>
</g>
</symbol><symbol viewBox="0 0 16 16" fill="none" id="filter-tick" xmlns="http://www.w3.org/2000/svg">
<g id="aoFrame">
<path id="aoVector" d="M14.5306 5.03063L6.5306 13.0306C6.46092 13.1005 6.37813 13.156 6.28696 13.1939C6.1958 13.2317 6.09806 13.2512 5.99935 13.2512C5.90064 13.2512 5.8029 13.2317 5.71173 13.1939C5.62057 13.156 5.53778 13.1005 5.4681 13.0306L1.9681 9.53063C1.89833 9.46087 1.84299 9.37804 1.80524 9.28689C1.76748 9.19574 1.74805 9.09804 1.74805 8.99938C1.74805 8.90072 1.76748 8.80302 1.80524 8.71187C1.84299 8.62072 1.89833 8.53789 1.9681 8.46813C2.03786 8.39837 2.12069 8.34302 2.21184 8.30527C2.30299 8.26751 2.40069 8.24808 2.49935 8.24808C2.59801 8.24808 2.69571 8.26751 2.78686 8.30527C2.87801 8.34302 2.96083 8.39837 3.0306 8.46813L5.99997 11.4375L13.4693 3.96938C13.6102 3.82848 13.8013 3.74933 14.0006 3.74933C14.1999 3.74933 14.391 3.82848 14.5318 3.96938C14.6727 4.11028 14.7519 4.30137 14.7519 4.50063C14.7519 4.69989 14.6727 4.89098 14.5318 5.03188L14.5306 5.03063Z" fill="currentColor"/>
</g>
</symbol><symbol viewBox="0 0 28 28" fill="none" id="git" xmlns="http://www.w3.org/2000/svg">
<circle cx="14" cy="14" r="14" fill="currentColor"/>
<circle cx="14" cy="14" r="13.5" stroke="currentColor" stroke-opacity="0.2"/>
<path fill-rule="evenodd" clip-rule="evenodd" d="M14.6068 7.22656C11.0159 7.22656 8.12695 10.1155 8.12695 13.7065C8.12695 16.5684 9.98992 18.9984 12.5549 19.8624C12.8789 19.9164 12.9869 19.7274 12.9869 19.5384C12.9869 19.3764 12.9869 18.9714 12.9869 18.4314C11.1779 18.8364 10.7999 17.5674 10.7999 17.5674C10.5029 16.8114 10.0709 16.6224 10.0709 16.6224C9.47693 16.2174 10.1249 16.2174 10.1249 16.2174C10.7729 16.2714 11.1239 16.8924 11.1239 16.8924C11.6909 17.8914 12.6359 17.5944 13.0139 17.4324C13.0679 17.0004 13.2299 16.7304 13.4189 16.5684C11.9879 16.4064 10.4759 15.8394 10.4759 13.3555C10.4759 12.6535 10.7189 12.0595 11.1509 11.6275C11.0969 11.4655 10.8539 10.8175 11.2049 9.89952C11.2049 9.89952 11.7449 9.73752 12.9869 10.5745C13.4999 10.4395 14.0669 10.3585 14.6068 10.3585C15.1468 10.3585 15.7138 10.4395 16.2268 10.5745C17.4688 9.73752 18.0088 9.89952 18.0088 9.89952C18.3598 10.7905 18.1438 11.4385 18.0628 11.6275C18.4678 12.0865 18.7378 12.6535 18.7378 13.3555C18.7378 15.8394 17.2258 16.3794 15.7678 16.5414C16.0108 16.7304 16.1998 17.1354 16.1998 17.7294C16.1998 18.5934 16.1998 19.2954 16.1998 19.5114C16.1998 19.6734 16.3078 19.8894 16.6588 19.8354C19.2238 18.9984 21.0867 16.5684 21.0867 13.7065C21.0867 10.1155 18.1978 7.22656 14.6068 7.22656Z" fill="currentColor"/>
</symbol><symbol viewBox="0 0 157 36" fill="none" id="gucci" xmlns="http://www.w3.org/2000/svg">
<g id="argucci-logo-1 1" clip-path="url(#arclip0_22_365)">
<path id="arVector" d="M141.794 11.2934L141.502 11.3855C140.369 9.04204 138.749 7.17651 136.644 5.78893C134.571 4.40133 131.964 3.70752 128.822 3.70752C127.073 3.70752 125.405 4.06211 123.818 4.77129C122.231 5.44972 120.838 6.42104 119.64 7.68525C118.474 8.91865 117.534 10.4142 116.822 12.1718C116.109 13.9294 115.753 15.872 115.753 17.9997C115.753 20.1273 116.109 22.0699 116.822 23.8275C117.534 25.5851 118.474 27.096 119.64 28.3603C120.838 29.5937 122.231 30.5496 123.818 31.228C125.405 31.9063 127.073 32.2455 128.822 32.2455C131.931 32.2455 134.458 31.783 136.401 30.8579C138.377 29.9021 140.045 28.4528 141.405 26.5102L141.697 26.6024L141.6 29.5626C140.855 30.3026 139.997 30.9656 139.025 31.5514C138.053 32.1065 137.001 32.5844 135.867 32.9853C134.766 33.3553 133.616 33.6328 132.418 33.8178C131.219 34.0339 130.021 34.1419 128.822 34.1419C126.328 34.1419 123.948 33.7564 121.681 32.9855C119.413 32.2146 117.421 31.1354 115.705 29.7478C113.988 28.3294 112.628 26.6335 111.624 24.66C110.62 22.6558 110.117 20.4356 110.117 17.9996C110.117 15.5636 110.62 13.3589 111.624 11.3855C112.628 9.38116 113.988 7.6698 115.705 6.25142C117.421 4.83298 119.413 3.75374 121.681 3.01369C123.948 2.24279 126.328 1.85734 128.822 1.85734C130.021 1.85734 131.219 1.94984 132.418 2.13486C133.616 2.31987 134.766 2.61281 135.867 3.01369C137.001 3.38372 138.053 3.86167 139.025 4.44757C139.997 5.0026 140.855 5.65013 141.6 6.39017L141.794 11.2934ZM34.7337 20.1277C34.3776 20.2817 34.0375 20.4822 33.7134 20.7293C33.3893 20.9758 33.2273 21.315 33.2273 21.7469V27.4359C31.6726 29.5636 29.6807 31.2133 27.2515 32.385C24.8223 33.5568 22.1339 34.1427 19.1865 34.1427C16.6925 34.1427 14.3119 33.7572 12.0447 32.9863C9.77742 32.2154 7.78547 31.1362 6.06882 29.7486C4.3522 28.3302 2.99183 26.6343 1.98774 24.6608C0.983707 22.6566 0.481689 20.4364 0.481689 18.0004C0.481689 15.5644 0.983707 13.3597 1.98774 11.3863C2.99183 9.38192 4.3522 7.67056 6.06882 6.25218C7.78547 4.83374 9.77742 3.75451 12.0447 3.01449C14.3119 2.24356 16.6925 1.8581 19.1865 1.8581C20.3849 1.8581 21.5833 1.9506 22.7818 2.13561C23.9801 2.32062 25.1299 2.61357 26.2312 3.01445C27.3648 3.38447 28.4175 3.86243 29.3891 4.44832C30.3608 5.00335 31.2192 5.65089 31.9642 6.39093L32.1588 11.2937L31.8673 11.3859C30.7337 9.04238 29.1142 7.17683 27.0089 5.78925C24.936 4.40165 22.3286 3.70784 19.1868 3.70784C17.4378 3.70784 15.7698 4.06245 14.1828 4.77165C12.5957 5.45005 11.2029 6.42136 10.0045 7.68557C8.83844 8.919 7.89917 10.4145 7.18667 12.1721C6.47405 13.9297 6.11774 15.8724 6.11774 18C6.11774 20.0968 6.45784 22.024 7.13804 23.7816C7.85063 25.5392 8.78993 27.0501 9.95594 28.3144C11.1543 29.5478 12.547 30.5191 14.1341 31.2283C15.7212 31.9067 17.4055 32.2459 19.1868 32.2459C22.5554 32.2459 25.438 31.6292 27.8348 30.3958V21.7465C27.8348 21.315 27.6568 20.9758 27.3007 20.7289C26.9766 20.4824 26.6527 20.2819 26.329 20.1273L26.3734 19.8963C26.5351 19.9245 26.8267 19.9553 27.2479 19.9885C27.6692 20.0167 28.1064 20.0475 28.5597 20.0807H32.7381C33.1268 20.0525 33.4993 20.0218 33.8556 19.9885C34.2117 19.9603 34.4869 19.9296 34.6813 19.8963L34.7337 20.1277ZM69.9237 2.82908C69.5996 2.98307 69.2757 3.18359 68.952 3.43065C68.6279 3.67714 68.4499 4.13967 68.4179 4.81822C68.3883 5.55827 68.356 6.49875 68.321 7.63967C68.321 8.74976 68.3062 10.014 68.2766 11.4323C68.2766 12.8508 68.2618 14.3926 68.2321 16.0577V21.2381C68.2025 23.2423 67.9433 24.9537 67.4545 26.3721C66.9687 27.7905 66.3209 28.9776 65.5112 29.9335C64.7339 30.8895 63.8593 31.6449 62.8876 32.2C61.9483 32.755 61.009 33.1713 60.0697 33.4488C59.1628 33.7573 58.3045 33.9423 57.4949 34.0038C56.6851 34.0963 56.0535 34.1426 55.6 34.1426C53.7539 34.1426 51.9724 33.9113 50.2557 33.4488C48.5391 33.0173 47.033 32.3081 45.7375 31.3211C44.4419 30.3344 43.4055 29.0547 42.6281 27.4822C41.8508 25.9096 41.4621 23.9978 41.4621 21.7468V16.5203V11.7099C41.4621 10.2298 41.4473 8.90384 41.4177 7.73214C41.4177 6.52954 41.4028 5.55823 41.3732 4.81818C41.3436 4.13979 41.1656 3.67726 40.8391 3.43061C40.515 3.18411 40.1911 2.98359 39.8674 2.82904L39.9119 2.59806C40.0736 2.62626 40.3329 2.65699 40.6895 2.69025C41.0782 2.71845 41.4669 2.74918 41.8555 2.78243C42.2768 2.78243 42.6817 2.79653 43.0702 2.82473H44.8192C45.2079 2.79653 45.6127 2.78243 46.0337 2.78243C46.455 2.75423 46.8437 2.7235 47.1998 2.69025C47.5884 2.66204 47.8636 2.63132 48.0254 2.59806L48.0698 2.82904C47.7137 2.98303 47.3736 3.18355 47.0496 3.43061C46.7581 3.6771 46.596 4.13963 46.5634 4.81818C46.5338 5.55823 46.5015 6.52954 46.4666 7.73214V21.7468C46.4666 25.1078 47.2925 27.59 48.9443 29.1935C50.5962 30.7969 53.0416 31.5986 56.2806 31.5986C57.2198 31.5986 58.2887 31.4906 59.4871 31.2746C60.6856 31.0281 61.803 30.5347 62.8394 29.7945C63.9082 29.0544 64.799 28.0061 65.5115 26.6493C66.2565 25.2925 66.629 23.4887 66.629 21.2377C66.629 18.8017 66.6142 16.7204 66.5845 14.9936C66.5845 13.236 66.5697 11.7405 66.5401 10.5071C66.5401 9.24282 66.5253 8.16358 66.4957 7.26933C66.466 6.37514 66.4337 5.55801 66.3988 4.81795C66.3691 4.13955 66.1911 3.67702 65.8646 3.43037C65.5405 3.18387 65.2167 2.98334 64.893 2.82876L64.9374 2.59782C65.2935 2.65928 65.6984 2.72104 66.152 2.78311C66.6052 2.81131 67.0263 2.82541 67.4152 2.82541C67.7713 2.82541 68.1761 2.81131 68.6298 2.78311C69.1156 2.72165 69.5367 2.65989 69.893 2.59782L69.9237 2.82908ZM105.178 11.2934L104.886 11.3855C103.753 9.04204 102.133 7.17651 100.028 5.78893C97.955 4.40133 95.3476 3.70752 92.2059 3.70752C90.4569 3.70752 88.7888 4.06211 87.2017 4.77129C85.6146 5.44972 84.2219 6.42104 83.0235 7.68525C81.8575 8.91865 80.9182 10.4142 80.2056 12.1718C79.4931 13.9294 79.1368 15.8721 79.1368 17.9997C79.1368 20.1273 79.4931 22.0699 80.2056 23.8275C80.9183 25.5851 81.8576 27.096 83.0235 28.3603C84.2219 29.5937 85.6146 30.5496 87.2017 31.228C88.7888 31.9063 90.4569 32.2455 92.2059 32.2455C95.3153 32.2455 97.8417 31.783 99.785 30.8579C101.761 29.9021 103.429 28.4528 104.789 26.5102L105.081 26.6024L104.984 29.5626C104.239 30.3026 103.38 30.9656 102.409 31.5514C101.437 32.1064 100.384 32.5844 99.2508 32.9853C98.1496 33.3553 96.9998 33.6328 95.8013 33.8178C94.6029 34.0338 93.4045 34.1419 92.2062 34.1419C89.7121 34.1419 87.3315 33.7564 85.0643 32.9855C82.797 32.2146 80.8051 31.1354 79.0885 29.7478C77.3718 28.3294 76.0114 26.6335 75.0074 24.66C74.0033 22.6557 73.5013 20.4356 73.5013 17.9996C73.5013 15.5636 74.0033 13.3589 75.0074 11.3855C76.0114 9.38112 77.3718 7.66976 79.0885 6.25138C80.8051 4.83294 82.797 3.7537 85.0643 3.01365C87.3315 2.24275 89.7122 1.8573 92.2062 1.8573C93.4045 1.8573 94.6029 1.94981 95.8013 2.13482C96.9998 2.31983 98.1496 2.61277 99.2508 3.01365C100.384 3.38368 101.437 3.86163 102.409 4.44753C103.38 5.00256 104.239 5.65009 104.984 6.39013L105.178 11.2934ZM156.437 33.356C156.275 33.3278 156 33.297 155.612 33.2638C155.256 33.2638 154.867 33.2497 154.446 33.2215C154.024 33.2215 153.619 33.2074 153.231 33.1792H150.316C149.928 33.2074 149.539 33.2381 149.15 33.2714C148.794 33.2996 148.519 33.3303 148.325 33.3635L148.28 33.1782C148.604 33.0242 148.928 32.8237 149.252 32.5766C149.576 32.3302 149.754 31.8676 149.786 31.1891C149.816 30.449 149.83 29.6782 149.83 28.8764C149.86 28.0747 149.875 27.165 149.875 26.1475V22.6785V18.007V13.3355V9.82025C149.875 8.80269 149.86 7.90846 149.83 7.13756C149.83 6.33585 149.816 5.56497 149.786 4.82493C149.756 4.14653 149.578 3.68401 149.252 3.43735C148.928 3.15984 148.604 2.94407 148.28 2.79005L148.325 2.6048C148.519 2.66626 148.794 2.71251 149.15 2.74356C149.539 2.74356 149.928 2.75766 150.316 2.78586C150.737 2.81406 151.142 2.82817 151.531 2.82817H153.231C153.62 2.79996 154.025 2.78586 154.446 2.78586C154.867 2.75766 155.256 2.72693 155.612 2.69368C156 2.66548 156.275 2.63475 156.437 2.60149L156.482 2.78682C156.126 2.94081 155.786 3.15656 155.461 3.43408C155.17 3.68057 155.008 4.1431 154.975 4.82166C154.946 5.5617 154.913 6.33257 154.878 7.13429V28.8732C154.908 29.6749 154.94 30.4458 154.975 31.1858C155.005 31.8642 155.167 32.3267 155.461 32.5734C155.786 32.8199 156.126 33.0204 156.482 33.1749L156.437 33.356Z" fill="currentColor"/>
</g>
<defs>
<clipPath id="arclip0_22_365">
<rect width="156" height="36" fill="currentColor" transform="translate(0.481689)"/>
</clipPath>
</defs>
</symbol><symbol viewBox="0 0 28 28" fill="none" id="inst" xmlns="http://www.w3.org/2000/svg">
<circle cx="14" cy="14" r="14" fill="currentColor"/>
<circle cx="14" cy="14" r="13.5" stroke="currentColor" stroke-opacity="0.2"/>
<path d="M14.0008 8.44721C15.8095 8.44721 16.0237 8.45398 16.7382 8.48656C17.1678 8.49182 17.5933 8.5707 17.9962 8.71979C18.2884 8.83248 18.5538 9.00511 18.7753 9.22656C18.9967 9.44802 19.1694 9.71339 19.282 10.0056C19.4311 10.4085 19.51 10.8341 19.5153 11.2637C19.5475 11.9782 19.5546 12.1924 19.5546 14.0011C19.5546 15.8098 19.5479 16.024 19.5153 16.7385C19.51 17.1681 19.4311 17.5936 19.282 17.9966C19.1694 18.2888 18.9967 18.5541 18.7753 18.7756C18.5538 18.997 18.2884 19.1697 17.9962 19.2824C17.5933 19.4315 17.1678 19.5103 16.7382 19.5156C16.024 19.5479 15.8098 19.5549 14.0008 19.5549C12.1917 19.5549 11.9775 19.5482 11.2633 19.5156C10.8337 19.5103 10.4082 19.4315 10.0053 19.2824C9.71307 19.1697 9.44769 18.997 9.22624 18.7756C9.00479 18.5541 8.83216 18.2888 8.71947 17.9966C8.57038 17.5936 8.4915 17.1681 8.48624 16.7385C8.45398 16.024 8.44689 15.8098 8.44689 14.0011C8.44689 12.1924 8.45366 11.9782 8.48624 11.2637C8.4915 10.8341 8.57038 10.4085 8.71947 10.0056C8.83216 9.71339 9.00479 9.44802 9.22624 9.22656C9.44769 9.00511 9.71307 8.83248 10.0053 8.71979C10.4082 8.5707 10.8337 8.49182 11.2633 8.48656C11.9779 8.4543 12.192 8.44721 14.0008 8.44721ZM14.0008 7.22656C12.162 7.22656 11.9304 7.2343 11.2079 7.26721C10.6456 7.27839 10.0893 7.38485 9.56269 7.58205C9.11092 7.75226 8.70172 8.019 8.36366 8.36366C8.01869 8.70184 7.75172 9.11127 7.5814 9.56334C7.3842 10.09 7.27775 10.6463 7.26656 11.2085C7.2343 11.9304 7.22656 12.162 7.22656 14.0008C7.22656 15.8395 7.2343 16.0711 7.26721 16.7937C7.27839 17.3559 7.38485 17.9122 7.58205 18.4388C7.75218 18.8908 8.01892 19.3002 8.36366 19.6385C8.70191 19.9832 9.11133 20.25 9.56334 20.4201C10.09 20.6173 10.6463 20.7238 11.2085 20.7349C11.9311 20.7672 12.1617 20.7756 14.0014 20.7756C15.8411 20.7756 16.0717 20.7679 16.7943 20.7349C17.3565 20.7238 17.9128 20.6173 18.4395 20.4201C18.8893 20.2457 19.2978 19.9794 19.6389 19.6381C19.98 19.2968 20.246 18.8882 20.4201 18.4382C20.6173 17.9115 20.7238 17.3553 20.735 16.793C20.7672 16.0711 20.775 15.8395 20.775 14.0008C20.775 12.162 20.7672 11.9304 20.7343 11.2079C20.7231 10.6456 20.6167 10.0893 20.4195 9.56269C20.2493 9.11068 19.9826 8.70126 19.6379 8.36301C19.2996 8.01828 18.8902 7.75153 18.4382 7.5814C17.9115 7.3842 17.3553 7.27775 16.793 7.26656C16.0711 7.2343 15.8395 7.22656 14.0008 7.22656Z" fill="currentColor"/>
<path d="M14.0021 10.5234C13.3141 10.5234 12.6416 10.7275 12.0695 11.1097C11.4974 11.492 11.0515 12.0353 10.7882 12.6709C10.5249 13.3066 10.4561 14.006 10.5903 14.6808C10.7245 15.3556 11.0558 15.9755 11.5423 16.462C12.0288 16.9485 12.6487 17.2798 13.3235 17.414C13.9983 17.5482 14.6977 17.4794 15.3334 17.2161C15.969 16.9528 16.5123 16.5069 16.8946 15.9348C17.2768 15.3627 17.4809 14.6902 17.4809 14.0021C17.4809 13.0795 17.1144 12.1947 16.462 11.5423C15.8096 10.8899 14.9248 10.5234 14.0021 10.5234ZM14.0021 16.2602C13.5555 16.2602 13.119 16.1278 12.7476 15.8797C12.3763 15.6315 12.0869 15.2789 11.916 14.8663C11.7451 14.4537 11.7003 13.9996 11.7875 13.5616C11.8746 13.1236 12.0897 12.7213 12.4055 12.4055C12.7213 12.0897 13.1236 11.8746 13.5616 11.7875C13.9996 11.7003 14.4537 11.7451 14.8663 11.916C15.2789 12.0869 15.6315 12.3763 15.8797 12.7476C16.1278 13.119 16.2602 13.5555 16.2602 14.0021C16.2602 14.601 16.0223 15.1754 15.5988 15.5988C15.1754 16.0223 14.601 16.2602 14.0021 16.2602Z" fill="currentColor"/>
<path d="M17.6176 11.1981C18.0665 11.1981 18.4305 10.8341 18.4305 10.3852C18.4305 9.93621 18.0665 9.57227 17.6176 9.57227C17.1686 9.57227 16.8047 9.93621 16.8047 10.3852C16.8047 10.8341 17.1686 11.1981 17.6176 11.1981Z" fill="currentColor"/>
</symbol><symbol viewBox="0 0 24 24" fill="none" id="label" xmlns="http://www.w3.org/2000/svg">
<g id="atFrame">
<path id="atVector" d="M23.0766 12.4857L13.7653 3.17444C13.5917 2.9997 13.3851 2.86115 13.1576 2.76685C12.93 2.67254 12.686 2.62435 12.4397 2.62507H3.75001C3.45164 2.62507 3.16549 2.7436 2.95451 2.95457C2.74353 3.16555 2.62501 3.4517 2.62501 3.75007V12.4398C2.62429 12.6861 2.67248 12.9301 2.76679 13.1576C2.86109 13.3852 2.99963 13.5918 3.17438 13.7654L12.4856 23.0766C12.8372 23.4281 13.3141 23.6256 13.8113 23.6256C14.3084 23.6256 14.7853 23.4281 15.1369 23.0766L23.0766 15.1369C23.4281 14.7853 23.6255 14.3085 23.6255 13.8113C23.6255 13.3141 23.4281 12.8373 23.0766 12.4857ZM13.8113 21.2204L4.87501 12.2813V4.87507H12.2813L21.2175 13.8113L13.8113 21.2204ZM9.37501 7.87507C9.37501 8.17174 9.28703 8.46175 9.12221 8.70842C8.95739 8.9551 8.72312 9.14736 8.44903 9.26089C8.17494 9.37442 7.87334 9.40412 7.58237 9.34625C7.2914 9.28837 7.02413 9.14551 6.81435 8.93573C6.60457 8.72595 6.46171 8.45868 6.40383 8.1677C6.34595 7.87673 6.37566 7.57513 6.48919 7.30104C6.60272 7.02695 6.79498 6.79269 7.04165 6.62786C7.28833 6.46304 7.57834 6.37507 7.87501 6.37507C8.27283 6.37507 8.65436 6.5331 8.93567 6.81441C9.21697 7.09571 9.37501 7.47724 9.37501 7.87507Z" fill="currentColor" fill-opacity="0.4"/>
</g>
</symbol><symbol viewBox="0 0 24 24" fill="none" id="minus" xmlns="http://www.w3.org/2000/svg">
<g id="auFrame">
<path id="auVector" d="M21.375 12C21.375 12.2984 21.2565 12.5845 21.0455 12.7955C20.8345 13.0065 20.5484 13.125 20.25 13.125H3.75C3.45163 13.125 3.16548 13.0065 2.9545 12.7955C2.74353 12.5845 2.625 12.2984 2.625 12C2.625 11.7016 2.74353 11.4155 2.9545 11.2045C3.16548 10.9935 3.45163 10.875 3.75 10.875H20.25C20.5484 10.875 20.8345 10.9935 21.0455 11.2045C21.2565 11.4155 21.375 11.7016 21.375 12Z" fill="currentColor"/>
</g>
</symbol><symbol viewBox="0 0 24 24" fill="none" id="plus" xmlns="http://www.w3.org/2000/svg">
<g id="avFrame">
<path id="avVector" d="M21.375 12C21.375 12.2984 21.2565 12.5845 21.0455 12.7955C20.8345 13.0065 20.5484 13.125 20.25 13.125H13.125V20.25C13.125 20.5484 13.0065 20.8345 12.7955 21.0455C12.5845 21.2565 12.2984 21.375 12 21.375C11.7016 21.375 11.4155 21.2565 11.2045 21.0455C10.9935 20.8345 10.875 20.5484 10.875 20.25V13.125H3.75C3.45163 13.125 3.16548 13.0065 2.9545 12.7955C2.74353 12.5845 2.625 12.2984 2.625 12C2.625 11.7016 2.74353 11.4155 2.9545 11.2045C3.16548 10.9935 3.45163 10.875 3.75 10.875H10.875V3.75C10.875 3.45163 10.9935 3.16548 11.2045 2.9545C11.4155 2.74353 11.7016 2.625 12 2.625C12.2984 2.625 12.5845 2.74353 12.7955 2.9545C13.0065 3.16548 13.125 3.45163 13.125 3.75V10.875H20.25C20.5484 10.875 20.8345 10.9935 21.0455 11.2045C21.2565 11.4155 21.375 11.7016 21.375 12Z" fill="currentColor"/>
</g>
</symbol><symbol viewBox="0 0 195 32" fill="none" id="prada" xmlns="http://www.w3.org/2000/svg">
<g id="awprada-logo-1 1" clip-path="url(#awclip0_22_367)">
<g id="awGroup">
<path id="awVector" fill-rule="evenodd" clip-rule="evenodd" d="M0.481689 0.90175L3.41386 4.20848V28.4106L1.24066 31.5774L14.5501 31.5978L12.1512 28.6839L11.9021 19.9679L24.7353 20.0375C28.6251 18.7425 32.6238 15.9815 32.8159 10.3996C32.7545 4.99032 29.452 1.52086 25.6177 0.830605L0.481689 0.90175ZM11.4265 2.44953V17.9977L21.2728 18.0689C23.5131 16.2623 25.2115 14.8787 25.1436 10.5411C25.1115 7.00433 24.3649 3.92011 21.0689 2.45029L11.4265 2.44953ZM38.9753 0.725402L41.9075 4.03289V28.2351L39.7343 31.4033L53.043 31.4222L50.6441 28.5083L50.395 19.7923H50.4483L64.1982 31.5206L75.6091 31.4275L65.1946 22.4193H56.5004L53.436 19.8089L63.2282 19.8619C67.118 18.5669 71.1159 15.8059 71.3088 10.224C71.2482 4.81548 67.9456 1.34527 64.1106 0.65577L38.9753 0.725402ZM49.9194 2.27318V17.8214L59.7657 17.8925C62.0068 16.0859 63.7044 14.7024 63.6365 10.364C63.6044 6.82798 62.8578 3.74301 59.5619 2.27318H49.9194ZM86.5949 0.690586H98.0708L113.009 28.4106C113.656 30.551 115.589 30.2869 116.88 31.2254H102.416L104.59 30.5457L104.454 28.4818L100.719 22.5011L88.0208 22.5722L85.3049 28.3418C85.2143 28.998 84.5123 29.496 85.0331 30.3111L86.0522 31.2958L79.805 31.155L82.5217 30.3111L92.7741 8.71181V7.23365L88.4423 1.45502L86.5949 0.690586ZM88.8236 20.5976L94.0977 10.6123L99.5888 20.5416L88.8236 20.5976ZM164.197 0.751135H175.672L190.611 28.4712C191.257 30.6116 193.191 30.3475 194.482 31.286H180.017L182.191 30.6048L182.055 28.5408L178.32 22.5616L165.622 22.6328L162.906 28.4008C162.815 29.0585 162.114 29.5565 162.634 30.3717L163.653 31.3563L157.407 31.2156L160.123 30.3717L170.376 8.77235V7.29345L166.044 1.51557L164.197 0.751135ZM166.425 20.6589L171.699 10.6736L177.191 20.6013L166.425 20.6589ZM120.849 0.402222L141.292 0.514994C147.875 2.05672 152.064 6.07868 153.363 13.0948L153.308 18.5669C152.108 24.8186 148.175 29.1319 141.238 31.3155L120.74 31.373L120.737 30.7107C123.853 30.4754 124.102 30.1196 124.11 28.2699V3.33506C124.075 1.96741 123.802 1.11594 120.794 1.02209L120.849 0.402222ZM132.469 2.53581L132.45 29.5134C135.146 29.5225 137.485 29.7753 138.806 29.1009C141.801 27.7333 143.191 25.633 143.319 23.6598L143.247 7.73016C143.248 5.1818 140.482 3.38274 138.885 2.91425C137.743 2.49116 135.465 2.47375 132.469 2.53581Z" fill="currentColor" stroke="currentColor" stroke-width="1.02419" stroke-miterlimit="2.613"/>
</g>
</g>
<defs>
<clipPath id="awclip0_22_367">
<rect width="194" height="32" fill="currentColor" transform="translate(0.481689)"/>
</clipPath>
</defs>
</symbol><symbol viewBox="0 0 24 24" id="search" xmlns="http://www.w3.org/2000/svg">
  <path d="M21.7959 20.2041L17.3437 15.75C18.6787 14.0104 19.3019 11.8282 19.087 9.64607C18.8722 7.4639 17.8353 5.44516 16.1867 3.99937C14.5382 2.55357 12.4014 1.78899 10.2098 1.86071C8.01829 1.93244 5.93607 2.8351 4.38558 4.38559C2.83509 5.93608 1.93243 8.0183 1.8607 10.2098C1.78898 12.4014 2.55356 14.5382 3.99936 16.1867C5.44515 17.8353 7.46389 18.8722 9.64606 19.087C11.8282 19.3019 14.0104 18.6787 15.75 17.3438L20.2059 21.8006C20.3106 21.9053 20.4348 21.9883 20.5715 22.0449C20.7083 22.1016 20.8548 22.1307 21.0028 22.1307C21.1508 22.1307 21.2973 22.1016 21.4341 22.0449C21.5708 21.9883 21.695 21.9053 21.7997 21.8006C21.9043 21.696 21.9873 21.5717 22.044 21.435C22.1006 21.2983 22.1298 21.1517 22.1298 21.0037C22.1298 20.8558 22.1006 20.7092 22.044 20.5725C21.9873 20.4358 21.9043 20.3115 21.7997 20.2069L21.7959 20.2041ZM4.12499 10.5C4.12499 9.23915 4.49888 8.0066 5.19938 6.95824C5.89987 5.90988 6.89551 5.09278 8.06039 4.61027C9.22527 4.12776 10.5071 4.00151 11.7437 4.2475C12.9803 4.49348 14.1162 5.10064 15.0078 5.9922C15.8994 6.88376 16.5065 8.01967 16.7525 9.2563C16.9985 10.4929 16.8722 11.7747 16.3897 12.9396C15.9072 14.1045 15.0901 15.1001 14.0418 15.8006C12.9934 16.5011 11.7608 16.875 10.5 16.875C8.80977 16.8733 7.18927 16.2011 5.99411 15.0059C4.79894 13.8107 4.12673 12.1902 4.12499 10.5Z"/>
</symbol><symbol viewBox="0 0 16 16" fill="none" id="select-down" xmlns="http://www.w3.org/2000/svg">
<g id="ayFrame">
<path id="ayVector" d="M13.5306 6.53063L8.53063 11.5306C8.46095 11.6005 8.37816 11.656 8.28699 11.6939C8.19583 11.7317 8.09809 11.7512 7.99938 11.7512C7.90067 11.7512 7.80293 11.7317 7.71176 11.6939C7.6206 11.656 7.53781 11.6005 7.46813 11.5306L2.46813 6.53063C2.32723 6.38973 2.24808 6.19864 2.24808 5.99938C2.24808 5.80012 2.32723 5.60902 2.46813 5.46813C2.60902 5.32723 2.80012 5.24808 2.99938 5.24808C3.19864 5.24808 3.38973 5.32723 3.53063 5.46813L8 9.9375L12.4694 5.4675C12.6103 5.32661 12.8014 5.24745 13.0006 5.24745C13.1999 5.24745 13.391 5.32661 13.5319 5.4675C13.6728 5.6084 13.7519 5.7995 13.7519 5.99875C13.7519 6.19801 13.6728 6.38911 13.5319 6.53L13.5306 6.53063Z" fill="currentColor"/>
</g>
</symbol><symbol viewBox="0 0 24 24" fill="none" id="sign-in" xmlns="http://www.w3.org/2000/svg">
<g id="azFrame">
<path id="azVector" d="M12 1.875C9.99747 1.875 8.0399 2.46882 6.37486 3.58137C4.70981 4.69392 3.41206 6.27523 2.64572 8.12533C1.87939 9.97543 1.67888 12.0112 2.06955 13.9753C2.46023 15.9393 3.42454 17.7435 4.84055 19.1595C6.25656 20.5755 8.06066 21.5398 10.0247 21.9305C11.9888 22.3211 14.0246 22.1206 15.8747 21.3543C17.7248 20.5879 19.3061 19.2902 20.4186 17.6251C21.5312 15.9601 22.125 14.0025 22.125 12C22.122 9.3156 21.0543 6.74199 19.1562 4.84383C17.258 2.94567 14.6844 1.87798 12 1.875ZM7.45969 18.4284C7.98195 17.7143 8.66528 17.1335 9.45418 16.7331C10.2431 16.3327 11.1153 16.124 12 16.124C12.8847 16.124 13.7569 16.3327 14.5458 16.7331C15.3347 17.1335 16.0181 17.7143 16.5403 18.4284C15.2134 19.3695 13.6268 19.875 12 19.875C10.3732 19.875 8.78665 19.3695 7.45969 18.4284ZM9.375 11.25C9.375 10.7308 9.52896 10.2233 9.8174 9.79163C10.1058 9.35995 10.5158 9.0235 10.9955 8.82482C11.4751 8.62614 12.0029 8.57415 12.5121 8.67544C13.0213 8.77672 13.489 9.02673 13.8562 9.39384C14.2233 9.76096 14.4733 10.2287 14.5746 10.7379C14.6759 11.2471 14.6239 11.7749 14.4252 12.2545C14.2265 12.7342 13.8901 13.1442 13.4584 13.4326C13.0267 13.721 12.5192 13.875 12 13.875C11.3038 13.875 10.6361 13.5984 10.1438 13.1062C9.65157 12.6139 9.375 11.9462 9.375 11.25ZM18.1875 16.8694C17.4583 15.9419 16.5289 15.1914 15.4688 14.6737C16.1444 13.9896 16.6026 13.1208 16.7858 12.1769C16.9689 11.2329 16.8688 10.2558 16.498 9.36861C16.1273 8.4814 15.5024 7.72364 14.702 7.19068C13.9017 6.65771 12.9616 6.37334 12 6.37334C11.0384 6.37334 10.0983 6.65771 9.29797 7.19068C8.49762 7.72364 7.87275 8.4814 7.50198 9.36861C7.13121 10.2558 7.0311 11.2329 7.21424 12.1769C7.39739 13.1208 7.85561 13.9896 8.53125 14.6737C7.4711 15.1914 6.54168 15.9419 5.8125 16.8694C4.89661 15.7083 4.32614 14.3129 4.1664 12.8427C4.00665 11.3725 4.2641 9.88711 4.90925 8.55644C5.55441 7.22578 6.5612 6.10366 7.81439 5.31855C9.06757 4.53343 10.5165 4.11703 11.9953 4.11703C13.4741 4.11703 14.9231 4.53343 16.1762 5.31855C17.4294 6.10366 18.4362 7.22578 19.0814 8.55644C19.7265 9.88711 19.984 11.3725 19.8242 12.8427C19.6645 14.3129 19.094 15.7083 18.1781 16.8694H18.1875Z" fill="currentColor"/>
</g>
</symbol><symbol viewBox="0 0 148 28" fill="none" id="social" xmlns="http://www.w3.org/2000/svg">
<g id="baSocial">
<g id="ba1">
<g id="baBG">
<circle cx="14" cy="14" r="14" fill="currentColor"/>
<circle cx="14" cy="14" r="13.5" stroke="currentColor" stroke-opacity="0.2"/>
</g>
<g id="balogo-twitter 2">
<g id="baGroup">
<path id="baVector" d="M20.2071 10.9831C19.7881 11.1693 19.3458 11.2857 18.8802 11.3556C19.3458 11.0762 19.7183 10.6339 19.8812 10.0985C19.4389 10.3546 18.9501 10.5408 18.4146 10.6572C17.9956 10.2149 17.3904 9.93555 16.7386 9.93555C15.4815 9.93555 14.4572 10.9598 14.4572 12.2169C14.4572 12.4031 14.4805 12.5661 14.5271 12.729C12.6415 12.6359 10.9421 11.728 9.80141 10.3313C9.61518 10.6805 9.49878 11.0529 9.49878 11.472C9.49878 12.2634 9.89453 12.9618 10.5231 13.3808C10.1506 13.3576 9.80141 13.2644 9.4755 13.1015V13.1248C9.4755 14.2422 10.267 15.1733 11.3145 15.3828C11.1283 15.4294 10.9188 15.4527 10.7093 15.4527C10.5696 15.4527 10.4067 15.4294 10.267 15.4061C10.5696 16.314 11.4077 16.9891 12.4087 16.9891C11.6172 17.5943 10.6395 17.9668 9.56862 17.9668C9.38239 17.9668 9.19616 17.9668 9.0332 17.9435C10.0575 18.5953 11.2447 18.9678 12.5483 18.9678C16.7618 18.9678 19.0665 15.476 19.0665 12.4497C19.0665 12.3566 19.0665 12.2402 19.0665 12.1471C19.5088 11.8444 19.9045 11.4487 20.2071 10.9831Z" fill="currentColor"/>
</g>
</g>
</g>
<g id="ba2">
<circle id="baBG_2" cx="54" cy="14" r="14" fill="currentColor"/>
<g id="balogo-fb-simple 2">
<g id="baGroup_2">
<path id="baVector_2" d="M52.7087 20.3038V14.7503H50.8398V12.5859H52.7087V10.9898C52.7087 9.13752 53.84 8.12891 55.4924 8.12891C56.2839 8.12891 56.9642 8.18784 57.1624 8.21417V10.1499L56.0164 10.1505C55.1178 10.1505 54.9438 10.5775 54.9438 11.2041V12.5859H57.087L56.8079 14.7503H54.9438V20.3038H52.7087Z" fill="currentColor"/>
</g>
</g>
</g>
<g id="ba3">
<g id="baBG_3">
<circle cx="94" cy="14" r="14" fill="currentColor"/>
<circle cx="94" cy="14" r="13.5" stroke="currentColor" stroke-opacity="0.2"/>
</g>
<g id="balogo-instagram 1">
<g id="baGroup_3">
<path id="baVector_3" d="M94.0008 8.44721C95.8095 8.44721 96.0237 8.45398 96.7382 8.48656C97.1678 8.49182 97.5933 8.5707 97.9962 8.71979C98.2884 8.83248 98.5538 9.00511 98.7753 9.22656C98.9967 9.44802 99.1694 9.71339 99.282 10.0056C99.4311 10.4085 99.51 10.8341 99.5153 11.2637C99.5475 11.9782 99.5546 12.1924 99.5546 14.0011C99.5546 15.8098 99.5479 16.024 99.5153 16.7385C99.51 17.1681 99.4311 17.5936 99.282 17.9966C99.1694 18.2888 98.9967 18.5541 98.7753 18.7756C98.5538 18.997 98.2884 19.1697 97.9962 19.2824C97.5933 19.4315 97.1678 19.5103 96.7382 19.5156C96.024 19.5479 95.8098 19.5549 94.0008 19.5549C92.1917 19.5549 91.9775 19.5482 91.2633 19.5156C90.8337 19.5103 90.4082 19.4315 90.0053 19.2824C89.7131 19.1697 89.4477 18.997 89.2262 18.7756C89.0048 18.5541 88.8322 18.2888 88.7195 17.9966C88.5704 17.5936 88.4915 17.1681 88.4862 16.7385C88.454 16.024 88.4469 15.8098 88.4469 14.0011C88.4469 12.1924 88.4537 11.9782 88.4862 11.2637C88.4915 10.8341 88.5704 10.4085 88.7195 10.0056C88.8322 9.71339 89.0048 9.44802 89.2262 9.22656C89.4477 9.00511 89.7131 8.83248 90.0053 8.71979C90.4082 8.5707 90.8337 8.49182 91.2633 8.48656C91.9779 8.4543 92.192 8.44721 94.0008 8.44721ZM94.0008 7.22656C92.162 7.22656 91.9304 7.2343 91.2079 7.26721C90.6456 7.27839 90.0893 7.38485 89.5627 7.58205C89.1109 7.75226 88.7017 8.019 88.3637 8.36366C88.0187 8.70184 87.7517 9.11127 87.5814 9.56334C87.3842 10.09 87.2777 10.6463 87.2666 11.2085C87.2343 11.9304 87.2266 12.162 87.2266 14.0008C87.2266 15.8395 87.2343 16.0711 87.2672 16.7937C87.2784 17.3559 87.3848 17.9122 87.582 18.4388C87.7522 18.8908 88.0189 19.3002 88.3637 19.6385C88.7019 19.9832 89.1113 20.25 89.5633 20.4201C90.09 20.6173 90.6463 20.7238 91.2085 20.7349C91.9311 20.7672 92.1617 20.7756 94.0014 20.7756C95.8411 20.7756 96.0717 20.7679 96.7943 20.7349C97.3565 20.7238 97.9128 20.6173 98.4395 20.4201C98.8893 20.2457 99.2978 19.9794 99.6389 19.6381C99.98 19.2968 100.246 18.8882 100.42 18.4382C100.617 17.9115 100.724 17.3553 100.735 16.793C100.767 16.0711 100.775 15.8395 100.775 14.0008C100.775 12.162 100.767 11.9304 100.734 11.2079C100.723 10.6456 100.617 10.0893 100.419 9.56269C100.249 9.11068 99.9826 8.70126 99.6379 8.36301C99.2996 8.01828 98.8902 7.75153 98.4382 7.5814C97.9115 7.3842 97.3553 7.27775 96.793 7.26656C96.0711 7.2343 95.8395 7.22656 94.0008 7.22656Z" fill="currentColor"/>
<path id="baVector_4" d="M94.0021 10.5234C93.3141 10.5234 92.6416 10.7275 92.0695 11.1097C91.4974 11.492 91.0515 12.0353 90.7882 12.6709C90.5249 13.3066 90.4561 14.006 90.5903 14.6808C90.7245 15.3556 91.0558 15.9755 91.5423 16.462C92.0288 16.9485 92.6487 17.2798 93.3235 17.414C93.9983 17.5482 94.6977 17.4794 95.3334 17.2161C95.969 16.9528 96.5123 16.5069 96.8946 15.9348C97.2768 15.3627 97.4809 14.6902 97.4809 14.0021C97.4809 13.0795 97.1144 12.1947 96.462 11.5423C95.8096 10.8899 94.9248 10.5234 94.0021 10.5234ZM94.0021 16.2602C93.5555 16.2602 93.119 16.1278 92.7476 15.8797C92.3763 15.6315 92.0869 15.2789 91.916 14.8663C91.7451 14.4537 91.7003 13.9996 91.7875 13.5616C91.8746 13.1236 92.0897 12.7213 92.4055 12.4055C92.7213 12.0897 93.1236 11.8746 93.5616 11.7875C93.9996 11.7003 94.4537 11.7451 94.8663 11.916C95.2789 12.0869 95.6315 12.3763 95.8797 12.7476C96.1278 13.119 96.2602 13.5555 96.2602 14.0021C96.2602 14.601 96.0223 15.1754 95.5988 15.5988C95.1754 16.0223 94.601 16.2602 94.0021 16.2602Z" fill="currentColor"/>
<path id="baVector_5" d="M97.6176 11.1981C98.0665 11.1981 98.4305 10.8341 98.4305 10.3852C98.4305 9.93621 98.0665 9.57227 97.6176 9.57227C97.1686 9.57227 96.8047 9.93621 96.8047 10.3852C96.8047 10.8341 97.1686 11.1981 97.6176 11.1981Z" fill="currentColor"/>
</g>
</g>
</g>
<g id="ba4">
<g id="baBG_4">
<circle cx="134" cy="14" r="14" fill="currentColor"/>
<circle cx="134" cy="14" r="13.5" stroke="currentColor" stroke-opacity="0.2"/>
</g>
<g id="balogo-github 1">
<g id="baGroup_4">
<path id="baVector_6" fill-rule="evenodd" clip-rule="evenodd" d="M134.607 7.22656C131.016 7.22656 128.127 10.1155 128.127 13.7065C128.127 16.5684 129.99 18.9984 132.555 19.8624C132.879 19.9164 132.987 19.7274 132.987 19.5384C132.987 19.3764 132.987 18.9714 132.987 18.4314C131.178 18.8364 130.8 17.5674 130.8 17.5674C130.503 16.8114 130.071 16.6224 130.071 16.6224C129.477 16.2174 130.125 16.2174 130.125 16.2174C130.773 16.2714 131.124 16.8924 131.124 16.8924C131.691 17.8914 132.636 17.5944 133.014 17.4324C133.068 17.0004 133.23 16.7304 133.419 16.5684C131.988 16.4064 130.476 15.8394 130.476 13.3555C130.476 12.6535 130.719 12.0595 131.151 11.6275C131.097 11.4655 130.854 10.8175 131.205 9.89952C131.205 9.89952 131.745 9.73752 132.987 10.5745C133.5 10.4395 134.067 10.3585 134.607 10.3585C135.147 10.3585 135.714 10.4395 136.227 10.5745C137.469 9.73752 138.009 9.89952 138.009 9.89952C138.36 10.7905 138.144 11.4385 138.063 11.6275C138.468 12.0865 138.738 12.6535 138.738 13.3555C138.738 15.8394 137.226 16.3794 135.768 16.5414C136.011 16.7304 136.2 17.1354 136.2 17.7294C136.2 18.5934 136.2 19.2954 136.2 19.5114C136.2 19.6734 136.308 19.8894 136.659 19.8354C139.224 18.9984 141.087 16.5684 141.087 13.7065C141.087 10.1155 138.198 7.22656 134.607 7.22656Z" fill="currentColor"/>
</g>
</g>
</g>
</g>
</symbol><symbol viewBox="0 0 104 104" fill="none" id="star-big" xmlns="http://www.w3.org/2000/svg">
<path id="bbVector" d="M52 0C53.7654 27.955 76.0448 50.2347 104 52C76.0448 53.7654 53.7654 76.0448 52 104C50.2347 76.0448 27.955 53.7654 0 52C27.955 50.2347 50.2347 27.955 52 0Z" fill="currentColor"/>
</symbol><symbol viewBox="0 0 24 25" fill="none" id="tick" xmlns="http://www.w3.org/2000/svg">
<g id="bcFrame">
<path id="bcVector" d="M12 2.8291C10.0716 2.8291 8.18657 3.40093 6.58319 4.47227C4.97982 5.54362 3.73013 7.06636 2.99218 8.84794C2.25422 10.6295 2.06114 12.5899 2.43735 14.4812C2.81355 16.3725 3.74215 18.1098 5.10571 19.4734C6.46928 20.837 8.20656 21.7656 10.0979 22.1418C11.9892 22.518 13.9496 22.3249 15.7312 21.5869C17.5127 20.849 19.0355 19.5993 20.1068 17.9959C21.1782 16.3925 21.75 14.5075 21.75 12.5791C21.7473 9.99408 20.7192 7.51571 18.8913 5.68783C17.0634 3.85994 14.585 2.83183 12 2.8291ZM16.2806 10.8597L11.0306 16.1097C10.961 16.1795 10.8783 16.2348 10.7872 16.2725C10.6962 16.3103 10.5986 16.3297 10.5 16.3297C10.4014 16.3297 10.3038 16.3103 10.2128 16.2725C10.1218 16.2348 10.039 16.1795 9.96938 16.1097L7.71938 13.8597C7.57865 13.719 7.49959 13.5281 7.49959 13.3291C7.49959 13.1301 7.57865 12.9392 7.71938 12.7985C7.86011 12.6577 8.05098 12.5787 8.25 12.5787C8.44903 12.5787 8.6399 12.6577 8.78063 12.7985L10.5 14.5188L15.2194 9.79848C15.2891 9.72879 15.3718 9.67352 15.4628 9.63581C15.5539 9.59809 15.6515 9.57868 15.75 9.57868C15.8486 9.57868 15.9461 9.59809 16.0372 9.63581C16.1282 9.67352 16.2109 9.72879 16.2806 9.79848C16.3503 9.86816 16.4056 9.95088 16.4433 10.0419C16.481 10.133 16.5004 10.2306 16.5004 10.3291C16.5004 10.4276 16.481 10.5252 16.4433 10.6163C16.4056 10.7073 16.3503 10.79 16.2806 10.8597Z" fill="currentColor"/>
</g>
</symbol><symbol viewBox="0 0 28 28" fill="none" id="twitter" xmlns="http://www.w3.org/2000/svg">
<circle cx="14" cy="14" r="14" fill="currentColor"/>
<circle cx="14" cy="14" r="13.5" stroke="currentColor" stroke-opacity="0.2"/>
<path d="M20.2071 10.9831C19.7881 11.1693 19.3458 11.2857 18.8802 11.3556C19.3458 11.0762 19.7183 10.6339 19.8812 10.0985C19.4389 10.3546 18.9501 10.5408 18.4146 10.6572C17.9956 10.2149 17.3904 9.93555 16.7386 9.93555C15.4815 9.93555 14.4572 10.9598 14.4572 12.2169C14.4572 12.4031 14.4805 12.5661 14.5271 12.729C12.6415 12.6359 10.9421 11.728 9.80141 10.3313C9.61518 10.6805 9.49878 11.0529 9.49878 11.472C9.49878 12.2634 9.89453 12.9618 10.5231 13.3808C10.1506 13.3576 9.80141 13.2644 9.4755 13.1015V13.1248C9.4755 14.2422 10.267 15.1733 11.3145 15.3828C11.1283 15.4294 10.9188 15.4527 10.7093 15.4527C10.5696 15.4527 10.4067 15.4294 10.267 15.4061C10.5696 16.314 11.4077 16.9891 12.4087 16.9891C11.6172 17.5943 10.6395 17.9668 9.56862 17.9668C9.38239 17.9668 9.19616 17.9668 9.0332 17.9435C10.0575 18.5953 11.2447 18.9678 12.5483 18.9678C16.7618 18.9678 19.0665 15.476 19.0665 12.4497C19.0665 12.3566 19.0665 12.2402 19.0665 12.1471C19.5088 11.8444 19.9045 11.4487 20.2071 10.9831Z" fill="currentColor"/>
</symbol><symbol viewBox="0 0 167 34" fill="none" id="versace" xmlns="http://www.w3.org/2000/svg">
<g id="beGroup">
<path id="beVector" fill-rule="evenodd" clip-rule="evenodd" d="M150.179 0.655656H166.482V3.25336C166.008 3.09436 165.512 3.0124 165.013 3.01061H155.642V15.1491H164.758C165.413 15.1491 165.996 15.0772 166.481 14.9548V17.5411C166.068 17.4443 165.499 17.3952 164.794 17.3952H155.642V29.9466H164.733C165.232 29.9466 165.826 29.874 166.481 29.7159V32.508H150.203C150.333 32.017 150.399 31.511 150.398 31.003V2.19691C150.398 1.56617 150.325 1.04435 150.179 0.655656ZM146.405 8.92219L141.695 8.88659C141.464 6.23976 139.947 3.67765 136.609 3.20567C129.459 2.56211 127.444 10.415 127.626 16.1572C127.809 21.6922 128.694 30.2015 136.075 30.2015C139.171 30.2015 142.144 27.0207 142.047 24.3383L146.405 24.3027C146.089 29.8377 139.741 33.0419 136.718 33.1516C126.389 33.5039 122.066 26.6206 121.848 16.7993C121.654 7.90346 125.296 0 135.504 0C144.244 0.121734 145.931 5.29294 146.405 8.92219ZM72.9408 28.8901L76.0611 26.2803C77.687 28.9635 79.0225 30.1886 82.2517 30.1886C85.5286 30.1886 88.285 28.1982 88.285 24.6786C88.285 22.9423 87.5802 21.522 86.1849 20.4542C85.5528 19.9559 83.951 19.0945 81.4259 17.8928C77.6507 16.0846 73.9731 13.7289 73.9731 8.99551C73.9731 3.02271 79.0467 0.388695 84.3995 0.193636C87.5681 0.0726133 91.5014 1.82174 93.091 3.78728L89.9231 6.22695C89.3581 5.17255 88.5181 4.29083 87.4923 3.6754C86.4665 3.05998 85.2932 2.73381 84.0969 2.73154C80.0541 2.73154 76.8498 7.41724 80.2 10.6464C81.0493 11.4715 82.7863 12.4909 85.4324 13.7047C89.6561 15.6838 93.2612 18.0501 93.2612 23.2825C93.2612 25.0908 92.7878 26.7779 91.853 28.3199C89.9722 31.4273 86.8278 32.9814 82.4339 32.9814C77.3838 32.9814 76.3892 31.8281 72.9408 28.8901ZM28.4893 0.655656H44.7782V3.25336C44.3051 3.09442 43.8094 3.01246 43.3103 3.01061H33.9396V15.1491H43.0554C43.7111 15.1491 44.2941 15.0772 44.7789 14.9548V17.5411C44.366 17.4443 43.7958 17.3952 43.1046 17.3952H33.9396V29.9466H43.0312C43.5289 29.9466 44.124 29.874 44.7789 29.7159V32.508H28.5143C28.6332 32.0151 28.6941 31.5101 28.6958 31.003V2.19691C28.6958 1.56617 28.6225 1.04435 28.4893 0.655656ZM0 0.655656H5.92368V0.947533C5.92368 1.21449 6.0084 1.56617 6.15434 2.01538L14.5049 27.1545L23.0754 1.90574C23.2085 1.48145 23.2818 1.06856 23.2818 0.655656H26.1586C25.8674 1.16537 25.6489 1.61529 25.515 2.01538L15.7308 31.2095C15.6339 31.4886 15.5492 31.9257 15.4766 32.5087H10.6208C10.5474 32.0674 10.4379 31.6329 10.2933 31.2095L0.704065 2.24603C0.482555 1.71187 0.251627 1.18166 0.0113903 0.655656H0ZM62.9145 17.262C66.7986 16.4968 69.7729 13.5232 69.7729 9.27457C69.7729 3.70186 65.1114 0.654944 59.8918 0.654944H50.3509C50.4841 1.14117 50.5574 1.65089 50.5574 2.18481V30.9774C50.5574 31.5968 50.4841 32.1186 50.3509 32.5073H56.0319C55.8929 32.0093 55.8235 31.4944 55.8254 30.9774V17.7476L57.6457 17.9419L67.1631 32.5073H72.8803L62.9145 17.262ZM61.9314 14.8345C60.8998 15.562 59.6611 15.9258 58.2409 15.9258H55.8133V2.97572H57.986C59.8441 2.97572 61.2878 3.43632 62.32 4.35822C63.7282 5.63394 64.4443 7.35744 64.4443 9.51804C64.4443 11.8488 63.6064 13.6214 61.9314 14.8352M120.901 31.1853L110.293 1.71211C110.175 1.37134 110.105 1.01572 110.086 0.655656H105.497C105.497 1.03225 105.436 1.43233 105.29 1.83313L95.0096 31.1853C94.875 31.6089 94.6572 32.0467 94.366 32.508H97.3275C97.3161 32.0225 97.3766 31.5733 97.5105 31.1853L100.556 22.5294H112.27L115.281 31.186C115.439 31.658 115.511 32.0951 115.511 32.508H121.654C121.301 32.0104 121.047 31.5612 120.901 31.1853ZM101.358 20.1865L106.31 5.80266L111.397 20.1865H101.358Z" fill="currentColor"/>
</g>
</symbol><symbol viewBox="0 0 66 49" fill="none" id="visa" xmlns="http://www.w3.org/2000/svg">
<g filter="url(#bffilter0_dd_20_320)">
<rect x="10" y="5" width="46.6143" height="30.0304" rx="5.37857" fill="currentColor"/>
<rect x="9.88795" y="4.88795" width="46.8384" height="30.2545" rx="5.49062" stroke="currentColor" stroke-width="0.224107"/>
<path d="M33.0221 15.121L30.8479 25.2845H28.2188L30.3933 15.121H33.0221ZM44.0838 21.6836L45.468 17.8669L46.2645 21.6836H44.0838ZM47.0172 25.2845H49.4491L47.327 15.121H45.0823C44.5779 15.121 44.1523 15.4144 43.9628 15.8667L40.0184 25.2845H42.7794L43.3275 23.7668H46.7007L47.0172 25.2845ZM40.1554 21.9661C40.1667 19.2836 36.4458 19.1359 36.4715 17.9376C36.4792 17.5725 36.827 17.1852 37.5865 17.0858C37.9638 17.0366 39.0012 16.999 40.1792 17.541L40.6405 15.3857C40.0078 15.1561 39.1936 14.9351 38.1809 14.9351C35.5824 14.9351 33.7533 16.3167 33.7379 18.295C33.7215 19.758 35.0436 20.5745 36.0398 21.0609C37.0641 21.5591 37.4083 21.8782 37.4038 22.3238C37.397 23.0061 36.5867 23.3065 35.8307 23.3184C34.5086 23.3393 33.7414 22.9617 33.1299 22.6767L32.6535 24.9037C33.2676 25.1858 34.4015 25.4309 35.5779 25.4435C38.3395 25.4435 40.1464 24.0789 40.1554 21.9661ZM29.2652 15.121L25.0055 25.2845H22.2258L20.1298 17.1733C20.0024 16.6738 19.8917 16.491 19.5047 16.2803C18.8733 15.9377 17.8294 15.6157 16.911 15.4163L16.9737 15.121H21.4474C22.0174 15.121 22.5305 15.5006 22.6598 16.1571L23.767 22.0388L26.5029 15.121H29.2652Z" fill="currentColor"/>
</g>
<defs>
<filter id="bffilter0_dd_20_320" x="0.811593" y="0.293736" width="64.9911" height="48.4071" filterUnits="userSpaceOnUse" color-interpolation-filters="sRGB">
<feFlood flood-opacity="0" result="BackgroundImageFix"/>
<feColorMatrix in="SourceAlpha" type="matrix" values="0 0 0 0 0 0 0 0 0 0 0 0 0 0 0 0 0 0 127 0" result="hardAlpha"/>
<feOffset dy="0.448214"/>
<feGaussianBlur stdDeviation="2.24107"/>
<feColorMatrix type="matrix" values="0 0 0 0 0.717647 0 0 0 0 0.717647 0 0 0 0 0.717647 0 0 0 0.08 0"/>
<feBlend mode="normal" in2="BackgroundImageFix" result="effect1_dropShadow_20_320"/>
<feColorMatrix in="SourceAlpha" type="matrix" values="0 0 0 0 0 0 0 0 0 0 0 0 0 0 0 0 0 0 127 0" result="hardAlpha"/>
<feOffset dy="4.48214"/>
<feGaussianBlur stdDeviation="4.48214"/>
<feColorMatrix type="matrix" values="0 0 0 0 0.717647 0 0 0 0 0.717647 0 0 0 0 0.717647 0 0 0 0.08 0"/>
<feBlend mode="normal" in2="effect1_dropShadow_20_320" result="effect2_dropShadow_20_320"/>
<feBlend mode="normal" in="SourceGraphic" in2="effect2_dropShadow_20_320" result="shape"/>
</filter>
</defs>
</symbol><symbol viewBox="0 0 92 38" fill="none" id="zara" xmlns="http://www.w3.org/2000/svg">
<g id="bgzara-logo-1 1" clip-path="url(#bgclip0_22_363)">
<path id="bgVector" d="M86.8141 36.8682L73.3318 0.0322557L73.3226 0.00787354H73.0566L70.2802 7.57753L65.2258 21.3583L65.214 21.3474C63.4622 19.8135 60.9908 18.8546 57.8782 18.4976L56.9289 18.4003L57.8707 18.2805C63.0036 17.3652 66.454 14.1482 66.454 10.2723C66.454 4.95736 61.4165 1.24757 54.2006 1.24757H39.1869V1.51668H43.5494V28.98L32.9544 0.0321654L32.9448 0.00787354H32.6788L29.9024 7.57753L19.194 36.7734L19.1281 36.781C18.9451 36.8034 18.7641 36.8212 18.585 36.8346C18.3157 36.8556 18.0479 36.8681 17.7792 36.8681H6.95934L27.5265 1.51659L27.6794 1.25091H2.52491V12.1867H2.79182C2.83914 6.86007 5.96517 1.51659 12.8719 1.51659H21.2043L0.481689 37.133H28.399V26.6557H28.1321C28.0957 31.2985 25.4436 35.7082 19.6764 36.7039L19.493 36.7349L23.8853 24.7547H36.1892L40.6227 36.8682H36.2492V37.1331H53.415V36.8682H49.0228V18.5956H54.0908C59.2482 18.5956 62.2062 20.8821 62.2062 24.8669V28.1082C62.2062 28.4653 62.2306 28.9875 62.2577 29.4242V29.4401L59.5337 36.8665H55.9751V37.1314H63.3413V36.8665H59.821L62.3016 30.104C62.3067 30.1694 62.3093 30.2088 62.3093 30.2088L62.3777 30.8181L62.4436 31.2212C62.8575 33.7149 63.8186 35.548 65.2993 36.6695L65.5122 36.8229C66.6372 37.5991 68.0352 37.9922 69.6695 37.9922C71.8344 37.9922 73.2779 37.4566 74.4697 36.196L74.3134 36.0501C73.2153 37.0559 72.2939 37.4633 71.1393 37.4633C69.172 37.4633 68.1425 35.0954 68.1425 32.7602V28.2188C68.1529 27.092 67.9751 25.9712 67.6162 24.9021L67.5673 24.7613V24.7563H76.5668L81.0003 36.8699H76.6268V37.1347H91.4817V36.8699L86.8141 36.8682ZM23.9832 24.4898L30.0444 7.96485L36.0921 24.4898H23.9832ZM49.0255 18.3299V1.51659H52.8939C58.0615 1.51659 60.7897 4.56507 60.7897 10.3294C60.7897 16.4599 59.2236 18.3299 54.0908 18.3299H49.0255ZM67.4624 24.4898L67.4362 24.4244C67.0363 23.4578 66.454 22.5759 65.7207 21.826L65.4673 21.5745L65.4403 21.5494L70.4186 7.96485L76.4663 24.4898H67.4624Z" fill="currentColor"/>
</g>
<defs>
<clipPath id="bgclip0_22_363">
<rect width="91" height="38" fill="currentColor" transform="translate(0.481689)"/>
</clipPath>
</defs>
</symbol></svg>